<svg xmlns="http://www.w3.org/2000/svg" viewBox="0 0 500 800">
<defs><radialGradient id="g" cx="50%" cy="30%"><stop offset="0" stop-color="#d7b661" stop-opacity=".28"/><stop offset="1" stop-color="#d7b661" stop-opacity="0"/></radialGradient></defs>
<ellipse cx="250" cy="390" rx="220" ry="330" fill="url(#g)"/>
<path d="M95 760q20-280 155-300q135 20 155 300z" fill="#7b2528"/>
<path d="M143 760q24-246 107-270q83 24 107 270z" fill="none" stroke="#d7b661" stroke-opacity=".55" stroke-width="8"/>
<path d="M177 468q73 54 146 0l-32-62h-82z" fill="#e4d9c6" opacity=".9"/>
<ellipse cx="250" cy="235" rx="102" ry="126" fill="#c99a72"/>
<path d="M174 215q18-100 76-108q58 8 76 108q-41-20-76-20q-35 0-76 20" fill="#1f1b1a"/>
<ellipse cx="216" cy="238" rx="9" ry="6" fill="#28201d"/><ellipse cx="284" cy="238" rx="9" ry="6" fill="#28201d"/>
<path d="M220 286q30 16 60 0" fill="none" stroke="#6f4638" stroke-width="5" stroke-linecap="round"/>
<path d="M155 132h190l-18-55-54 22-23-48-23 48-54-22z" fill="#17191f" stroke="#b58b43" stroke-width="6"/><rect x="178" y="121" width="144" height="30" rx="6" fill="#16181d" stroke="#b58b43" stroke-width="5"/>
</svg>